# This file uses centimeters as units for non-parametric coordinates.

mtllib Rock2_Obj.mtl
g default
v 0.924465 2.563157 -0.472361
v 0.000000 0.000000 0.000000
v 1.438204 2.352714 -0.451655
v 0.512118 -0.000000 -0.032779
v 1.402637 2.213095 -0.988203
v 0.478196 -0.024380 -1.370525
v 0.888899 2.423540 -1.008909
v -0.033922 -0.019894 -1.337745
v 1.617727 2.501041 -0.789770
v 0.215911 -0.046570 -1.448031
v 0.485906 1.707466 -0.896530
v 1.246946 2.548849 -1.165916
v -0.107405 -0.000000 -0.262538
v 0.924181 2.785140 -0.817722
v 0.533921 1.895949 -0.172190
v 1.227466 1.611850 -0.144237
v 1.294961 2.737331 -0.441576
v 0.583955 -0.000000 -0.306790
v 1.179453 1.423367 -0.868577
v 0.888697 1.785314 -0.037490
v 1.319050 1.470259 -0.501748
v 0.824677 1.534003 -1.003277
v 0.019702 1.206470 -0.539019
v 1.409042 2.970902 -0.898201
v 0.394322 2.495825 -0.539019
v 0.924180 3.431906 -0.817723
v 0.533920 2.542716 -0.172190
v 0.924465 3.209924 -0.472361
v 0.333038 1.895949 -0.172190
v 0.060357 1.849058 -0.539019
v 0.361068 2.542716 -0.172190
v 0.037285 2.495824 -0.539019
v 0.266753 1.138774 -0.092950
v -0.044201 0.777542 -0.412313
v 0.224962 0.974723 -0.973282
v 0.519669 0.823163 -1.068427
v 0.828604 0.727452 -0.948953
v 0.952246 0.767387 -0.379701
v 0.870395 0.891502 -0.068621
v 0.575687 1.043060 0.026525
v 0.575687 1.043060 0.260777
v 0.266752 1.138774 0.141303
v -0.000847 0.000001 0.414929
v 0.261435 0.000001 0.492436
v 0.870395 0.891502 0.165632
v 0.511271 0.000001 0.382150
vt 0.500119 0.832127
vt 0.391201 0.652362
vt 0.475324 0.631935
vt 0.604843 0.840585
vt 0.411385 0.415439
vt 0.362526 0.441397
vt 0.263271 0.207675
vt 0.318846 0.196518
vt 0.462256 0.398884
vt 0.376183 0.199631
vt 0.550621 0.586607
vt 0.635081 0.748253
vt 0.628775 0.550208
vt 0.728211 0.776048
vt 0.567236 0.381879
vt 0.500946 0.416168
vt 0.458201 0.200048
vt 0.508937 0.202096
vt 0.682817 0.324721
vt 0.670599 0.118093
vt 0.703080 0.504235
vt 0.765035 0.681981
vt 0.785632 0.474814
vt 0.847436 0.719583
vt 0.755048 0.296605
vt 0.708258 0.082752
vt 0.831035 0.291311
vt 0.757623 0.068568
vt 0.875512 0.455781
vt 0.889374 0.628125
vt 0.941810 0.307267
vt 0.322048 0.962286
vt 0.960117 0.214049
vt 0.971343 0.035754
vt 0.340559 0.476330
vt 0.194085 0.257160
vt 0.415524 0.981807
vt 0.167466 0.713231
vt 0.369681 0.790305
vt 0.420238 0.904267
vt 0.719669 0.892977
vt 0.245415 0.623121
vt 0.344117 0.659952
vt 0.332869 0.779165
vt 0.221040 0.753112
vt 0.424107 0.460325
vt 0.213734 0.436597
vt 0.009596 0.803186
vt 0.951126 0.669094
vt 0.141241 0.285674
vt 0.627351 0.955587
vt 0.966741 0.768099
vt 0.844544 0.830121
vt 0.517850 0.920458
vt 0.502247 0.936759
vt 0.251975 0.511893
vt 0.259967 0.827140
vn -0.234805 0.482548 0.843810
vn -0.266739 0.351008 0.897577
vn 0.058991 0.237485 0.969598
vn 0.113947 0.368929 0.922446
vn -0.269483 0.284902 0.919896
vn -0.269483 0.284902 0.919896
vn -0.269483 0.284902 0.919896
vn -0.269483 0.284902 0.919896
vn 0.372224 0.084564 0.924282
vn 0.372224 0.084564 0.924282
vn 0.372224 0.084564 0.924282
vn 0.372224 0.084564 0.924282
vn 0.372972 0.087250 0.923731
vn 0.446665 0.203394 0.871275
vn 0.922384 -0.144872 0.358078
vn 0.894716 -0.254985 0.366695
vn 0.892751 -0.261285 0.367050
vn 0.922384 -0.144872 0.358078
vn 0.864294 -0.372080 0.338455
vn 0.861501 -0.373417 0.344058
vn 0.878677 -0.364645 0.308157
vn 0.878677 -0.364645 0.308157
vn 0.899165 -0.416402 -0.134582
vn 0.894752 -0.422218 -0.145430
vn 0.907961 -0.403909 -0.111642
vn 0.907961 -0.403909 -0.111642
vn 0.875206 -0.330072 -0.353648
vn 0.876059 -0.394828 -0.276824
vn 0.875413 -0.404341 -0.264877
vn 0.875206 -0.330072 -0.353648
vn 0.328718 -0.259608 -0.908046
vn 0.335458 -0.173079 -0.926019
vn 0.335996 -0.164199 -0.927440
vn 0.328718 -0.259608 -0.908046
vn 0.345268 0.300066 -0.889242
vn 0.345268 0.300066 -0.889242
vn 0.345268 0.300066 -0.889241
vn 0.345268 0.300066 -0.889241
vn -0.199300 0.414528 -0.887945
vn -0.199300 0.414528 -0.887945
vn -0.199300 0.414528 -0.887945
vn -0.199300 0.414528 -0.887945
vn -0.352752 0.019545 -0.935513
vn -0.287816 0.096587 -0.952803
vn -0.292332 0.091375 -0.951942
vn -0.352752 0.019545 -0.935513
vn -0.777093 0.354084 -0.520338
vn -0.788273 0.330452 -0.519064
vn -0.827041 0.235183 -0.510580
vn -0.777093 0.354084 -0.520338
vn -0.951454 0.200924 -0.233163
vn -0.932638 0.204929 -0.296968
vn -0.963651 0.197005 -0.180460
vn -0.963651 0.197005 -0.180460
vn -0.822394 0.283839 0.493056
vn -0.839740 0.239297 0.487414
vn -0.850776 0.207638 0.482770
vn -0.850776 0.207638 0.482770
vn -0.781293 0.553012 0.289412
vn -0.781293 0.553012 0.289412
vn -0.781293 0.553012 0.289412
vn -0.781293 0.553012 0.289412
vn -0.406272 0.535779 -0.740192
vn -0.406272 0.535779 -0.740192
vn -0.406272 0.535779 -0.740192
vn -0.406272 0.535779 -0.740192
vn -0.328650 0.840483 0.430787
vn -0.328650 0.840483 0.430787
vn -0.328650 0.840483 0.430787
vn -0.328650 0.840483 0.430787
vn 0.792547 0.381205 0.475975
vn 0.792547 0.381205 0.475975
vn 0.792547 0.381205 0.475975
vn 0.792547 0.381205 0.475975
vn 0.714925 0.076501 -0.695004
vn 0.714925 0.076501 -0.695004
vn 0.714925 0.076501 -0.695004
vn 0.714925 0.076501 -0.695003
vn -0.504533 0.097622 -0.857856
vn -0.504533 0.097622 -0.857856
vn -0.504533 0.097622 -0.857856
vn -0.504533 0.097622 -0.857856
vn -0.776107 0.002974 0.630594
vn -0.776107 0.002974 0.630594
vn -0.776107 0.002974 0.630594
vn -0.776107 0.002974 0.630594
vn 0.609394 -0.000000 0.792867
vn 0.609394 -0.000000 0.792868
vn 0.609394 -0.000000 0.792867
vn 0.609394 -0.000000 0.792867
vn 1.000000 -0.000000 -0.000824
vn 1.000000 -0.000000 -0.000824
vn 1.000000 -0.000000 -0.000824
vn 1.000000 -0.000000 -0.000824
vn -0.596330 -0.148693 0.788848
vn -0.596330 -0.148693 0.788848
vn -0.596330 -0.148693 0.788848
vn -0.596330 -0.148693 0.788848
vn -0.000000 -0.000000 1.000000
vn -0.000000 -0.000000 1.000000
vn -0.000000 -0.000000 1.000000
vn -0.000000 -0.000000 1.000000
vn -0.000001 0.991929 -0.126797
vn -0.000001 0.991929 -0.126797
vn -0.000001 0.991929 -0.126797
vn -0.000001 0.991929 -0.126797
vn 0.000000 0.000000 -1.000000
vn 0.000000 0.000000 -1.000000
vn 0.000000 0.000000 -1.000000
vn 0.000000 0.000000 -1.000000
vn -0.810169 0.312276 0.496095
vn -0.810169 0.312276 0.496095
vn -0.214473 0.178478 -0.960285
vn -0.214473 0.178478 -0.960285
vn 0.340209 -0.061543 -0.938334
vn 0.340209 -0.061543 -0.938334
vn -0.006097 0.086847 0.996203
vn 0.285112 -0.039193 0.957693
vn -0.294456 0.203152 0.933823
vn 0.295940 0.955206 0.000000
vn 0.295940 0.955206 0.000000
vn 0.295940 0.955206 0.000000
vn 0.295940 0.955206 0.000000
vn -0.973608 0.228221 -0.001271
vn -0.973609 0.228221 -0.001271
vn -0.973609 0.228221 -0.001271
vn -0.973608 0.228221 -0.001271
vn 0.457334 0.889295 0.000000
vn 0.457334 0.889295 0.000000
vn 0.457334 0.889295 0.000000
vn 0.457334 0.889295 0.000000
vn 0.927780 -0.373125 0.001211
vn 0.927780 -0.373125 0.001211
vn 0.927780 -0.373126 0.001211
vn 0.927780 -0.373125 0.001211
s 1
g Rock2
usemtl lambert4SG
f 1/1/1 15/2/2 20/3/3 17/4/4
s off
f 41/5/5 42/6/6 43/7/7 44/8/8
f 45/9/9 41/5/10 44/8/11 46/10/12
s 1
f 17/4/4 20/3/3 16/11/13 3/12/14
s 2
f 3/12/15 16/11/16 21/13/17 9/14/18
f 38/15/19 39/16/20 4/17/21 18/18/22
s 3
f 37/19/23 38/15/24 18/18/25 6/20/26
f 9/14/27 21/13/28 19/21/29 5/22/30
s 4
f 5/22/31 19/21/32 22/23/33 12/24/34
s off
f 36/25/35 37/19/36 6/20/37 10/26/38
f 35/27/39 36/25/40 10/26/41 8/28/42
s 5
f 12/24/43 22/23/44 11/29/45 7/30/46
s 6
f 7/30/47 11/29/48 23/31/49 14/49/50
f 34/33/51 35/27/52 8/28/53 13/34/54
s 7
f 33/35/55 34/47/56 13/50/57 2/36/58
s off
f 26/37/59 25/57/60 27/39/61 28/40/62
f 7/30/63 14/49/64 24/52/65 12/24/66
f 14/54/67 1/1/68 17/4/69 24/51/70
f 24/41/71 17/4/72 3/12/73 9/14/74
f 12/24/75 24/53/76 9/14/77 5/22/78
f 14/32/79 23/48/80 25/57/81 26/37/82
f 30/42/83 29/43/84 31/44/85 32/45/86
f 15/2/87 1/1/88 28/40/89 27/39/90
f 1/1/91 14/55/92 26/37/93 28/40/94
f 23/56/95 15/2/96 29/43/97 30/42/98
f 15/2/99 27/39/100 31/44/101 29/43/102
f 27/39/103 25/57/104 32/45/105 31/44/106
f 25/38/107 23/56/108 30/42/109 32/45/110
s 7
f 23/56/111 34/47/56 33/35/55 15/2/112
s 6
f 11/29/48 35/27/52 34/33/51 23/31/49
s 5
f 22/23/44 36/25/113 35/27/114 11/29/45
s 4
f 19/21/32 37/19/115 36/25/116 22/23/33
s 3
f 21/13/28 38/15/24 37/19/23 19/21/29
s 2
f 16/11/16 39/16/20 38/15/19 21/13/17
s 1
f 20/3/3 40/46/117 39/16/118 16/11/13
f 15/2/2 33/35/119 40/46/117 20/3/3
s off
f 40/46/120 33/35/121 42/6/122 41/5/123
f 33/35/124 2/36/125 43/7/126 42/6/127
f 39/16/128 40/46/129 41/5/130 45/9/131
f 4/17/132 39/16/133 45/9/134 46/10/135
