# This file uses centimeters as units for non-parametric coordinates.

mtllib LandMass.mtl
g default
v 23.188660 0.000000 7.534452
v 19.725454 0.000000 14.331381
v 14.331381 0.000000 19.725451
v 7.534452 0.000000 23.188658
v 0.000000 0.000000 24.381996
v -7.534452 0.000000 23.188656
v -14.331378 0.000000 19.725447
v -19.725447 0.000000 14.331376
v -23.188650 0.000000 7.534449
v -24.381990 0.000000 -0.000000
v -23.188650 0.000000 -7.534450
v -19.725445 0.000000 -14.331375
v -14.331375 0.000000 -19.725443
v -7.534450 0.000000 -23.188650
v -0.000001 0.000000 -24.381989
v 7.534448 0.000000 -23.188646
v 14.331372 0.000000 -19.725441
v 19.725441 0.000000 -14.331373
v 23.188644 0.000000 -7.534449
v 24.381985 0.000000 -0.000000
v 0.000000 -16.833017 -0.000000
v 22.846954 0.208126 0.000000
v 21.728758 0.208126 7.060101
v 21.728743 0.208126 -7.060097
v 18.483574 0.208126 -13.429104
v 13.429102 0.208126 -18.483574
v 7.060096 0.208126 -21.728745
v -0.000001 0.208126 -22.846956
v -7.060099 0.208126 -21.728748
v -13.429105 0.208126 -18.483576
v -18.483580 0.208126 -13.429105
v -21.728748 0.208126 -7.060098
v -22.846960 0.208126 0.000000
v -21.728748 0.208126 7.060099
v -18.483580 0.208126 13.429107
v -13.429108 0.208126 18.483580
v -7.060101 0.208126 21.728754
v -0.000000 0.208126 22.846966
v 7.060101 0.208126 21.728756
v 13.429111 0.208126 18.483585
v 18.483585 0.208126 13.429111
vt 0.737764 0.172746
vt 0.702254 0.103054
vt 0.646946 0.047746
vt 0.577254 0.012236
vt 0.500000 -0.000000
vt 0.422746 0.012236
vt 0.353054 0.047746
vt 0.297746 0.103054
vt 0.262236 0.172746
vt 0.250000 0.250000
vt 0.262236 0.327254
vt 0.297746 0.396946
vt 0.353054 0.452254
vt 0.422746 0.487764
vt 0.500000 0.500000
vt 0.577254 0.487764
vt 0.646946 0.452254
vt 0.702254 0.396946
vt 0.737764 0.327254
vt 0.750000 0.250000
vt 0.250000 0.500000
vt 0.275000 0.500000
vt 0.300000 0.500000
vt 0.325000 0.500000
vt 0.350000 0.500000
vt 0.375000 0.500000
vt 0.400000 0.500000
vt 0.425000 0.500000
vt 0.450000 0.500000
vt 0.475000 0.500000
vt 0.500000 0.500000
vt 0.525000 0.500000
vt 0.550000 0.500000
vt 0.575000 0.500000
vt 0.600000 0.500000
vt 0.625000 0.500000
vt 0.650000 0.500000
vt 0.675000 0.500000
vt 0.700000 0.500000
vt 0.725000 0.500000
vt 0.750000 0.500000
vt 0.500000 1.000000
vt 0.737764 0.172746
vt 0.750000 0.250000
vt 0.737764 0.327254
vt 0.702254 0.396946
vt 0.646946 0.452254
vt 0.577254 0.487764
vt 0.500000 0.500000
vt 0.422746 0.487764
vt 0.353054 0.452254
vt 0.297746 0.396946
vt 0.262236 0.327254
vt 0.250000 0.250000
vt 0.262236 0.172746
vt 0.297746 0.103054
vt 0.353054 0.047746
vt 0.422746 0.012236
vt 0.500000 -0.000000
vt 0.577254 0.012236
vt 0.646946 0.047746
vt 0.702254 0.103054
vn 0.000000 1.000000 0.000000
vn 0.000000 1.000000 0.000000
vn 0.000000 1.000000 0.000000
vn 0.000000 1.000000 0.000000
vn 0.000000 1.000000 0.000000
vn 0.000000 1.000000 0.000000
vn 0.000000 1.000000 0.000000
vn 0.000000 1.000000 0.000000
vn 0.000000 1.000000 0.000000
vn 0.000000 1.000000 0.000000
vn 0.000000 1.000000 0.000000
vn 0.000000 1.000000 0.000000
vn 0.000000 1.000000 0.000000
vn 0.000000 1.000000 0.000000
vn 0.000000 1.000000 0.000000
vn 0.000000 1.000000 0.000000
vn 0.000000 1.000000 0.000000
vn 0.000000 1.000000 0.000000
vn 0.000000 1.000000 0.000000
vn 0.000000 1.000000 0.000000
vn 0.540334 -0.822931 0.175565
vn 0.459636 -0.822931 0.333945
vn -0.000000 -1.000000 0.000000
vn 0.333945 -0.822931 0.459636
vn 0.175565 -0.822931 0.540334
vn -0.000000 -0.822931 0.568141
vn -0.175565 -0.822931 0.540334
vn -0.333945 -0.822931 0.459636
vn -0.459636 -0.822931 0.333945
vn -0.540334 -0.822931 0.175565
vn -0.568141 -0.822931 0.000000
vn -0.540334 -0.822931 -0.175565
vn -0.459636 -0.822931 -0.333945
vn -0.333945 -0.822931 -0.459636
vn -0.175565 -0.822931 -0.540334
vn 0.000000 -0.822931 -0.568141
vn 0.175565 -0.822931 -0.540334
vn 0.333945 -0.822931 -0.459636
vn 0.459636 -0.822931 -0.333945
vn 0.540335 -0.822931 -0.175565
vn 0.568141 -0.822931 -0.000000
vn 0.134325 0.990709 0.021275
vn 0.134325 0.990709 0.021275
vn 0.134325 0.990709 0.021275
vn 0.134325 0.990709 0.021275
vn 0.134325 0.990709 -0.021275
vn 0.134325 0.990709 -0.021275
vn 0.134325 0.990709 -0.021275
vn 0.134325 0.990709 -0.021275
vn 0.121176 0.990709 -0.061742
vn 0.121176 0.990709 -0.061742
vn 0.121176 0.990709 -0.061742
vn 0.121176 0.990709 -0.061742
vn 0.096166 0.990709 -0.096166
vn 0.096166 0.990709 -0.096166
vn 0.096166 0.990709 -0.096166
vn 0.096166 0.990709 -0.096166
vn 0.061742 0.990709 -0.121176
vn 0.061742 0.990709 -0.121176
vn 0.061742 0.990709 -0.121176
vn 0.061742 0.990709 -0.121176
vn 0.021275 0.990709 -0.134324
vn 0.021275 0.990709 -0.134324
vn 0.021275 0.990709 -0.134324
vn 0.021275 0.990709 -0.134324
vn -0.021275 0.990709 -0.134325
vn -0.021275 0.990709 -0.134325
vn -0.021275 0.990709 -0.134325
vn -0.021275 0.990709 -0.134325
vn -0.061742 0.990709 -0.121176
vn -0.061742 0.990709 -0.121176
vn -0.061742 0.990709 -0.121176
vn -0.061742 0.990709 -0.121176
vn -0.096166 0.990709 -0.096166
vn -0.096166 0.990709 -0.096166
vn -0.096166 0.990709 -0.096166
vn -0.096166 0.990709 -0.096166
vn -0.121176 0.990709 -0.061742
vn -0.121176 0.990709 -0.061742
vn -0.121176 0.990709 -0.061742
vn -0.121176 0.990709 -0.061742
vn -0.134325 0.990709 -0.021275
vn -0.134325 0.990709 -0.021275
vn -0.134324 0.990709 -0.021275
vn -0.134325 0.990709 -0.021275
vn -0.134325 0.990709 0.021275
vn -0.134324 0.990709 0.021275
vn -0.134325 0.990709 0.021275
vn -0.134325 0.990709 0.021275
vn -0.121176 0.990709 0.061742
vn -0.121176 0.990709 0.061742
vn -0.121176 0.990709 0.061742
vn -0.121176 0.990709 0.061742
vn -0.096166 0.990709 0.096166
vn -0.096166 0.990709 0.096166
vn -0.096166 0.990709 0.096166
vn -0.096166 0.990709 0.096166
vn -0.061742 0.990709 0.121176
vn -0.061742 0.990709 0.121176
vn -0.061742 0.990709 0.121176
vn -0.061742 0.990709 0.121176
vn -0.021275 0.990709 0.134325
vn -0.021275 0.990709 0.134325
vn -0.021275 0.990709 0.134325
vn -0.021275 0.990709 0.134325
vn 0.021275 0.990709 0.134325
vn 0.021275 0.990709 0.134325
vn 0.021275 0.990709 0.134325
vn 0.021275 0.990709 0.134325
vn 0.061742 0.990709 0.121176
vn 0.061742 0.990709 0.121176
vn 0.061742 0.990709 0.121176
vn 0.061742 0.990709 0.121176
vn 0.096166 0.990709 0.096166
vn 0.096166 0.990709 0.096166
vn 0.096166 0.990709 0.096166
vn 0.096166 0.990709 0.096166
vn 0.121176 0.990709 0.061742
vn 0.121176 0.990709 0.061742
vn 0.121176 0.990709 0.061742
vn 0.121176 0.990709 0.061742
s off
g pCone1
usemtl initialShadingGroup
f 23/43/1 22/44/2 24/45/3 25/46/4 26/47/5 27/48/6 28/49/7 29/50/8 30/51/9 31/52/10 32/53/11 33/54/12 34/55/13 35/56/14 36/57/15 37/58/16 38/59/17 39/60/18 40/61/19 41/62/20
s 1
f 1/21/21 2/22/22 21/42/23
f 2/22/22 3/23/24 21/42/23
f 3/23/24 4/24/25 21/42/23
f 4/24/25 5/25/26 21/42/23
f 5/25/26 6/26/27 21/42/23
f 6/26/27 7/27/28 21/42/23
f 7/27/28 8/28/29 21/42/23
f 8/28/29 9/29/30 21/42/23
f 9/29/30 10/30/31 21/42/23
f 10/30/31 11/31/32 21/42/23
f 11/31/32 12/32/33 21/42/23
f 12/32/33 13/33/34 21/42/23
f 13/33/34 14/34/35 21/42/23
f 14/34/35 15/35/36 21/42/23
f 15/35/36 16/36/37 21/42/23
f 16/36/37 17/37/38 21/42/23
f 17/37/38 18/38/39 21/42/23
f 18/38/39 19/39/40 21/42/23
f 19/39/40 20/40/41 21/42/23
f 20/40/41 1/41/21 21/42/23
s off
f 1/1/42 20/20/43 22/44/44 23/43/45
f 20/20/46 19/19/47 24/45/48 22/44/49
f 19/19/50 18/18/51 25/46/52 24/45/53
f 18/18/54 17/17/55 26/47/56 25/46/57
f 17/17/58 16/16/59 27/48/60 26/47/61
f 16/16/62 15/15/63 28/49/64 27/48/65
f 15/15/66 14/14/67 29/50/68 28/49/69
f 14/14/70 13/13/71 30/51/72 29/50/73
f 13/13/74 12/12/75 31/52/76 30/51/77
f 12/12/78 11/11/79 32/53/80 31/52/81
f 11/11/82 10/10/83 33/54/84 32/53/85
f 10/10/86 9/9/87 34/55/88 33/54/89
f 9/9/90 8/8/91 35/56/92 34/55/93
f 8/8/94 7/7/95 36/57/96 35/56/97
f 7/7/98 6/6/99 37/58/100 36/57/101
f 6/6/102 5/5/103 38/59/104 37/58/105
f 5/5/106 4/4/107 39/60/108 38/59/109
f 4/4/110 3/3/111 40/61/112 39/60/113
f 3/3/114 2/2/115 41/62/116 40/61/117
f 2/2/118 1/1/119 23/43/120 41/62/121
