# This file uses centimeters as units for non-parametric coordinates.

mtllib Rock1_Obj.mtl
g default
v 0.809017 0.055128 -0.587785
v 0.312114 0.055128 -0.966763
v -0.268387 0.055130 -1.152850
v -0.905636 0.055128 -0.587785
v -1.082724 0.055129 0.000000
v -0.872528 0.055128 0.781220
v -0.372528 0.055128 1.144491
v 0.309017 0.055128 0.951057
v 1.093057 0.055128 0.619526
v 1.265454 0.055129 0.031741
v 0.700629 0.500000 -0.509037
v 0.229500 0.396559 -0.634312
v -0.273228 0.484696 -0.795467
v -0.617906 0.425760 -0.509037
v -0.771268 0.487694 0.000000
v -0.764140 0.500000 0.702471
v -0.331128 0.500000 1.017073
v 0.267617 0.500000 0.823639
v 0.780067 0.411262 0.540778
v 0.929368 0.482432 0.031741
v 0.404509 0.866025 -0.293893
v 0.154508 0.866025 -0.475528
v -0.154509 0.866025 -0.475528
v -0.404509 1.136810 -0.293893
v -0.500000 1.136810 0.000000
v -0.404509 1.136810 0.293893
v -0.154508 0.866025 0.475528
v 0.154509 0.866025 0.475528
v 0.404509 0.866025 0.293893
v 0.500000 0.866025 0.000000
v 0.000000 1.270784 0.000000
vt 0.022504 0.259727
vt 0.118003 0.259727
vt 0.213502 0.259727
vt 0.309001 0.259727
vt 0.404501 0.259727
vt 0.500000 0.259727
vt 0.595499 0.259727
vt 0.690999 0.259727
vt 0.786498 0.259727
vt 0.881997 0.259727
vt 0.977497 0.259727
vt 0.022504 0.418892
vt 0.118003 0.418892
vt 0.213502 0.418892
vt 0.309001 0.418892
vt 0.404501 0.418892
vt 0.500000 0.418892
vt 0.595499 0.418892
vt 0.690999 0.418892
vt 0.786498 0.418892
vt 0.881997 0.418892
vt 0.977497 0.418892
vt 0.022504 0.578058
vt 0.118003 0.578058
vt 0.213502 0.578058
vt 0.309001 0.578058
vt 0.404501 0.578058
vt 0.500000 0.578058
vt 0.595499 0.578058
vt 0.690999 0.578058
vt 0.786498 0.578058
vt 0.881997 0.578058
vt 0.977497 0.578058
vt 0.070253 0.737223
vt 0.165752 0.737223
vt 0.356751 0.737223
vt 0.547750 0.737223
vt 0.643249 0.737223
vt 0.738748 0.737223
vt 0.929747 0.737223
vn 0.624616 0.480609 -0.615525
vn 0.311246 0.597404 -0.739077
vn 0.316850 0.586493 -0.745407
vn 0.622669 0.480965 -0.617216
vn -0.124716 0.667682 -0.733925
vn -0.207343 0.655875 -0.725836
vn -0.688709 0.581022 -0.433698
vn -0.665245 0.574280 -0.477128
vn -0.854189 0.518040 -0.044666
vn -0.852824 0.519884 -0.049111
vn -0.809303 0.396556 0.433328
vn -0.812741 0.398273 0.425243
vn -0.136075 0.298289 0.944726
vn -0.113386 0.297764 0.947882
vn 0.348753 0.331061 0.876795
vn 0.347030 0.329415 0.878098
vn 0.643274 0.570776 0.510307
vn 0.580734 0.523949 0.623078
vn 0.810870 0.577061 -0.097418
vn 0.813402 0.562433 -0.148481
vn 0.538670 0.659084 -0.524826
vn 0.250520 0.481656 -0.839790
vn 0.249057 0.481078 -0.840556
vn 0.527586 0.653404 -0.542878
vn -0.151222 0.513471 -0.844677
vn -0.167262 0.513749 -0.841478
vn -0.707795 0.450930 -0.543773
vn -0.779662 0.423526 -0.461251
vn -0.900868 0.423774 -0.094084
vn -0.900856 0.424028 -0.093055
vn -0.570833 0.685673 0.451666
vn -0.728449 0.612091 0.307747
vn -0.060919 0.750169 0.658434
vn -0.056474 0.750728 0.658194
vn 0.284304 0.732380 0.618702
vn 0.285526 0.732073 0.618501
vn 0.561183 0.712512 0.421189
vn 0.552730 0.711440 0.433986
vn 0.679397 0.732321 0.046098
vn 0.680959 0.732262 0.009297
vn 0.509030 0.777247 -0.369832
vn 0.218498 0.748046 -0.626646
vn 0.213907 0.974602 -0.066298
vn 0.137557 0.731752 -0.667545
vn 0.137557 0.731752 -0.667545
vn -0.258819 0.965926 0.000000
vn -0.258819 0.965926 0.000000
vn -0.025281 0.939279 0.342221
vn 0.114466 0.737827 0.665214
vn 0.350494 0.802764 0.482414
vn 0.509030 0.777247 0.369832
vn 0.567111 0.802764 0.184266
s 1
g Rock1
usemtl lambert4SG
f 1/1/1 2/2/2 12/13/3 11/12/4
f 2/2/2 3/3/5 13/14/6 12/13/3
f 3/3/5 4/4/7 14/15/8 13/14/6
f 4/4/7 5/5/9 15/16/10 14/15/8
f 5/5/9 6/6/11 16/17/12 15/16/10
f 6/6/11 7/7/13 17/18/14 16/17/12
f 7/7/13 8/8/15 18/19/16 17/18/14
f 8/8/15 9/9/17 19/20/18 18/19/16
f 9/9/17 10/10/19 20/21/20 19/20/18
f 10/10/19 1/11/1 11/22/4 20/21/20
s 2
f 11/12/21 12/13/22 22/24/23 21/23/24
f 12/13/22 13/14/25 23/25/26 22/24/23
f 13/14/25 14/15/27 24/26/28 23/25/26
f 14/15/27 15/16/29 25/27/30 24/26/28
f 15/16/29 16/17/31 26/28/32 25/27/30
f 16/17/31 17/18/33 27/29/34 26/28/32
f 17/18/33 18/19/35 28/30/36 27/29/34
f 18/19/35 19/20/37 29/31/38 28/30/36
f 19/20/37 20/21/39 30/32/40 29/31/38
f 20/21/39 11/22/21 21/33/24 30/32/40
s 3
f 21/23/41 22/24/42 31/34/43
f 31/35/43 22/24/42 23/25/44 24/26/45
f 31/36/43 24/26/46 25/27/47 26/28/48
f 26/28/48 27/29/49 31/37/43
f 27/29/49 28/30/50 31/38/43
f 31/39/43 28/30/50 29/31/51 30/32/52
f 30/32/52 21/33/41 31/40/43
