# This file uses centimeters as units for non-parametric coordinates.

mtllib Meteor_Obj.mtl
g default
v 0.270597 -0.923880 -0.270598
v -0.030173 -0.824882 -0.382684
v -0.270598 -0.923880 -0.270598
v -0.382684 -0.846903 -0.095885
v -0.270598 -0.923880 0.270598
v 0.030945 -0.913721 0.226452
v 0.238997 -0.821272 0.214822
v 0.377197 -0.940597 0.082616
v 0.499999 -0.707107 -0.500000
v -0.000000 -0.707107 -0.707107
v -0.500000 -0.707107 -0.500000
v -0.515490 -0.707107 0.000000
v -0.500000 -0.707107 0.500000
v 0.112671 -0.824164 0.406455
v 0.326660 -0.792823 0.424538
v 0.458923 -0.851040 0.262619
v 0.653280 -0.382684 -0.653281
v -0.000000 -0.382684 -0.923879
v -0.563757 -0.382684 -0.555797
v -0.923880 -0.382684 0.000000
v -0.653282 -0.382684 0.653281
v -0.000000 -0.382684 0.923880
v 0.653281 -0.382684 0.653281
v 0.958163 -0.382684 0.000000
v 0.707106 0.000000 -0.707107
v -0.000000 0.000000 -0.868348
v -0.707107 0.000000 -0.707107
v -1.000000 0.000000 0.000000
v -0.242129 0.414965 0.729358
v -0.091413 0.364714 0.830366
v 0.120806 0.466540 0.860830
v 1.112304 0.000000 0.001049
v 0.653280 0.382684 -0.653281
v -0.000000 0.382684 -0.821533
v -0.537447 0.382684 -0.653281
v -0.708547 0.382684 0.000000
v -0.351206 0.515916 0.590563
v -0.009536 0.369851 0.513896
v 0.292175 0.601490 0.739140
v 0.843380 0.382684 0.000000
v 0.370933 0.707107 -0.433402
v -0.000000 0.707107 -0.646889
v -0.438576 0.707107 -0.500000
v -0.574294 0.730964 -0.075825
v -0.199720 0.662075 0.495286
v 0.135478 0.768048 0.401326
v 0.328675 0.719574 0.403828
v 0.386697 0.746536 0.191556
v 0.270597 0.790271 -0.270598
v -0.000000 0.802014 -0.382684
v -0.270598 0.923879 -0.270598
v -0.326816 0.945171 0.000000
v -0.146225 0.825364 0.110655
v 0.030227 0.843485 0.275457
v 0.214371 0.662149 0.243397
v 0.311369 0.821973 0.071986
v 0.163208 -0.971937 0.064533
v 0.118172 0.870447 0.097019
v 0.660345 -0.628615 0.015377
v 0.550746 -0.747043 0.047797
v 0.507293 -0.750276 -0.110915
v 0.616892 -0.631849 -0.143334
v 0.661317 -0.605705 -0.070693
v 0.506321 -0.773187 -0.024845
v 0.576640 -0.544895 -0.576641
v -0.000000 -0.544895 -0.815493
v -0.531879 -0.576660 -0.549189
v -0.719685 -0.647770 -0.057208
v -0.576641 -0.544895 0.576641
v 0.056335 -0.603424 0.665167
v 0.489971 -0.587754 0.538909
v 0.708543 -0.616862 0.131309
v 0.614546 -0.687159 0.064457
v 0.517388 -0.689929 -0.049436
v 0.553093 -0.691732 -0.159995
v 0.806113 -0.382684 -0.325802
v 0.897297 0.000000 -0.374714
v 0.749586 0.382684 -0.322326
v 0.393475 0.726561 -0.108353
v 0.296787 0.810634 -0.050543
v 0.480824 -0.774300 -0.143985
v 0.337345 -0.934347 -0.049431
v 0.539294 -0.702970 0.318728
v 0.493371 -0.697583 0.385723
v 0.494175 -0.765581 0.292834
v 0.448251 -0.760194 0.359829
v 0.525677 -0.687310 0.357589
v 0.461869 -0.775855 0.320969
v 0.461300 -0.727773 0.386652
v 0.441027 -0.720020 0.338489
v 0.526246 -0.735391 0.291906
v 0.407569 -0.828436 0.325488
v 0.580754 -0.599844 0.369614
v 0.746261 -0.382684 0.454050
v 0.647374 0.024019 0.410837
v 0.574381 0.350109 0.379290
v 0.384328 0.736636 0.290910
v 0.579973 -0.737479 0.198942
v 0.366805 -0.742413 0.452653
v 0.084842 -0.715122 0.534254
v -0.579763 -0.655240 0.524505
v -0.591320 -0.644497 0.000000
v -0.514992 -0.599056 -0.549190
v -0.000000 -0.633620 -0.697093
v 0.499742 -0.635323 -0.533916
v -0.646167 0.501607 -0.232032
v -0.617609 0.591740 -0.253446
v -0.606462 0.566151 -0.346285
v -0.635020 0.476018 -0.324871
v -0.676772 0.656368 -0.172980
v -0.684602 0.451844 -0.166131
v -0.716403 0.486804 -0.483347
v -0.536837 0.660069 -0.459344
v -0.606121 0.597613 -0.304301
v -0.646509 0.470145 -0.274016
v -0.618433 0.515785 -0.354806
v -0.582654 0.506269 -0.286830
v -0.634197 0.551974 -0.223511
v -0.550899 0.690461 -0.301093
v -0.523049 0.816348 -0.355135
v -0.331356 0.908975 -0.123916
v -0.696547 0.375148 -0.285283
v -0.716787 0.201355 -0.287481
v -0.837895 0.000000 -0.391357
v -0.660625 -0.356794 -0.297943
v -0.625666 -0.544895 -0.264276
v -0.651495 -0.617537 -0.216202
v -0.517628 -0.677748 -0.094150
v -0.320268 -0.852116 -0.150686
v -0.628711 -0.602483 -0.211016
v -0.589412 -0.526478 -0.262046
v 0.003239 -0.624469 -0.688966
v 0.003239 -0.535744 -0.807366
v -0.487165 -0.672597 -0.097269
v -0.301653 -0.817694 -0.160023
v -0.364070 -0.812482 -0.105222
v -0.494134 -0.672597 -0.003119
v -0.562882 -0.617764 0.000033
v -0.683431 -0.629353 -0.054978
vt 0.743440 0.374412
vt 0.108522 0.476502
vt 0.130967 0.537831
vt 0.898619 0.104402
vt 0.146322 0.434163
vt 0.205235 0.479291
vt 0.232946 0.287962
vt 0.174549 0.250570
vt 0.178648 0.274437
vt 0.221173 0.311143
vt 0.183422 0.284621
vt 0.574251 0.472648
vt 0.547799 0.531113
vt 0.213399 0.319896
vt 0.639211 0.461027
vt 0.661697 0.500848
vt 0.690065 0.469182
vt 0.402008 0.068951
vt 0.725194 0.443410
vt 0.506656 0.030867
vt 0.721986 0.497522
vt 0.777282 0.418332
vt 0.732001 0.417598
vt 0.942923 0.198884
vt 0.570031 0.310456
vt 0.158124 0.607950
vt 0.986659 0.806974
vt 0.391680 0.320540
vt 0.284992 0.567419
vt 0.343228 0.561843
vt 0.318715 0.336473
vt 0.269420 0.349687
vt 0.413625 0.570349
vt 0.533951 0.561468
vt 0.526354 0.594362
vt 0.652060 0.563751
vt 0.633152 0.619538
vt 0.739357 0.589077
vt 0.747220 0.646178
vt 0.784698 0.601846
vt 0.781705 0.658067
vt 0.670028 0.157984
vt 0.708653 0.163321
vt 0.932402 0.756841
vt 0.872975 0.701834
vt 0.173889 0.679525
vt 0.938636 0.873739
vt 0.293284 0.649235
vt 0.343524 0.640155
vt 0.405105 0.641532
vt 0.554539 0.751140
vt 0.587035 0.745540
vt 0.619931 0.766319
vt 0.749636 0.738093
vt 0.889595 0.823436
vt 0.838152 0.773629
vt 0.199790 0.752639
vt 0.871655 0.931036
vt 0.229845 0.070206
vt 0.357539 0.689516
vt 0.406390 0.109536
vt 0.524305 0.767657
vt 0.571629 0.793682
vt 0.631261 0.803247
vt 0.715446 0.800548
vt 0.825635 0.884091
vt 0.786017 0.840272
vt 0.235283 0.816543
vt 0.769921 0.971773
vt 0.223790 0.229204
vt 0.309280 0.197085
vt 0.320362 0.163987
vt 0.335527 0.180721
vt 0.323304 0.196974
vt 0.525954 0.811807
vt 0.395941 0.799085
vt 0.583599 0.861776
vt 0.634701 0.858552
vt 0.654235 0.874235
vt 0.717202 0.929659
vt 0.666090 0.890744
vt 0.266338 0.864582
vt 0.723844 0.969902
vt 0.339633 0.856273
vt 0.345958 0.807247
vt 0.379404 0.855272
vt 0.473024 0.866681
vt 0.410628 0.861443
vt 0.540808 0.876027
vt 0.613622 0.894597
vt 0.689362 0.939415
vt 0.669124 0.921945
vt 0.034659 0.355701
vt 0.393569 0.951656
vt 0.627311 0.177181
vt 0.637891 0.126032
vt 0.656804 0.062901
vt 0.699607 0.067055
vt 0.736532 0.145639
vt 0.734327 0.106215
vt 0.683959 0.094029
vt 0.546835 0.269607
vt 0.915892 0.141237
vt 0.395449 0.312869
vt 0.296842 0.309209
vt 0.235369 0.324588
vt 0.535900 0.541502
vt 0.238384 0.335114
vt 0.658045 0.533129
vt 0.716328 0.535698
vt 0.568860 0.105454
vt 0.521310 0.101825
vt 0.509368 0.081034
vt 0.631153 0.087051
vt 0.483932 0.125609
vt 0.504115 0.131678
vt 0.481630 0.096077
vt 0.519491 0.121842
vt 0.488624 0.073279
vt 0.470128 0.084390
vt 0.468664 0.107354
vt 0.313272 0.326239
vt 0.265310 0.340161
vt 0.547116 0.273261
vt 0.566705 0.312118
vt 0.346556 0.222048
vt 0.362483 0.136016
vt 0.254399 0.207878
vt 0.300305 0.240536
vt 0.286006 0.121430
vt 0.334162 0.092957
vt 0.339560 0.158166
vt 0.332212 0.141387
vt 0.318596 0.142842
vt 0.306675 0.159574
vt 0.300118 0.181866
vt 0.238419 0.283572
vt 0.302653 0.303764
vt 0.185209 0.247148
vt 0.038478 0.578133
vt 0.032374 0.603745
vt 0.031552 0.644587
vt 0.216712 0.899004
vt 0.042400 0.483544
vt 0.177028 0.870024
vt 0.086814 0.804168
vt 0.048599 0.727077
vt 0.032410 0.562737
vt 0.603068 0.384411
vt 0.665479 0.423024
vt 0.666648 0.421979
vt 0.686243 0.426397
vt 0.691203 0.418852
vt 0.691193 0.418838
vt 0.030907 0.416065
vt 0.044591 0.401741
vt 0.080509 0.350610
vt 0.140831 0.097478
vt 0.019489 0.206356
vt 0.306166 0.954925
vt 0.267597 0.958707
vt 0.641618 0.948799
vt 0.640036 0.947773
vt 0.634965 0.945897
vt 0.546408 0.915073
vt 0.520479 0.910835
vt 0.513064 0.910665
vt 0.411846 0.950805
vt 0.337390 0.014233
vt 0.409723 0.726406
vt 0.273365 0.280651
vt 0.368333 0.284332
vt 0.291022 0.725839
vt 0.312748 0.792681
vt 0.415815 0.099912
vt 0.457948 0.200751
vt 0.842249 0.620258
vt 0.524443 0.180923
vt 0.464035 0.043367
vt 0.733087 0.485463
vt 0.707157 0.051345
vt 0.817565 0.361031
vt 0.841272 0.299454
vt 0.984346 0.287220
vt 0.717979 0.318052
vt 0.706500 0.519122
vt 0.218824 0.404499
vt 0.165434 0.411969
vt 0.244900 0.431628
vt 0.220376 0.496643
vt 0.354739 0.524246
vt 0.421573 0.506324
vt 0.137303 0.549935
vt 0.152153 0.572454
vt 0.454710 0.493593
vt 0.277869 0.531499
vt 0.473830 0.477776
vt 0.497198 0.439059
vt 0.567140 0.315807
vt 0.550812 0.272666
vt 0.268707 0.349079
vt 0.229836 0.334652
vt 0.212786 0.317236
vt 0.242229 0.283528
vt 0.312385 0.336844
vt 0.302285 0.304356
vn 0.198624 -0.915117 -0.350869
vn 0.008311 -0.887807 -0.460142
vn -0.005296 -0.744414 -0.667697
vn 0.390481 -0.767642 -0.508183
vn -0.258383 -0.930221 -0.260629
vn -0.431498 -0.789171 -0.437056
vn -0.631644 -0.768399 -0.102900
vn -0.337876 -0.917956 -0.207837
vn -0.564754 -0.778233 -0.274604
vn -0.613727 -0.786418 -0.069898
vn -0.535410 -0.844142 -0.027573
vn -0.322953 -0.911320 0.255337
vn -0.343153 -0.834416 0.431272
vn -0.662799 -0.748233 0.029070
vn -0.003590 -0.801294 0.598260
vn -0.019433 -0.771114 0.636401
vn 0.310859 -0.900314 0.304633
vn 0.130669 -0.923262 0.361266
vn 0.173254 -0.968486 0.178936
vn 0.275144 -0.946772 0.167089
vn -0.106226 -0.826336 0.553069
vn -0.212446 -0.876758 0.431465
vn -0.203083 -0.906662 0.369759
vn 0.668960 -0.729546 -0.142321
vn 0.577824 -0.805155 -0.133586
vn 0.498630 -0.616245 -0.609599
vn -0.015195 -0.512461 -0.858576
vn -0.038437 -0.209780 -0.976993
vn 0.541245 -0.246998 -0.803770
vn -0.639910 -0.290927 -0.711250
vn -0.601192 -0.295175 -0.742590
vn -0.821678 -0.363756 -0.438779
vn -0.807929 -0.301175 -0.506502
vn -0.809545 -0.587044 0.004046
vn -0.953914 -0.097616 0.283759
vn -0.470578 -0.688056 0.552391
vn -0.722609 -0.058894 0.688744
vn -0.183360 -0.669034 0.720259
vn -0.035623 -0.168741 0.985017
vn 0.249828 -0.670314 0.698760
vn 0.251498 -0.670594 0.697892
vn 0.597852 -0.025658 0.801196
vn 0.646043 -0.665518 0.373783
vn 0.694727 -0.616572 0.370396
vn 0.827317 -0.061291 0.558382
vn 0.624651 -0.744939 -0.234257
vn 0.632507 -0.725372 -0.271605
vn 0.809125 -0.429962 -0.400562
vn 0.931551 -0.323385 0.166240
vn -0.018954 0.026656 -0.999465
vn 0.533522 0.054960 -0.843999
vn -0.595258 0.006467 -0.803509
vn -0.915062 0.043146 -0.400999
vn -0.926085 0.212859 0.311542
vn -0.635538 0.194547 0.747157
vn -0.078214 0.068886 0.994554
vn 0.442714 0.080000 0.893087
vn 0.764458 0.228516 0.602814
vn 0.899650 0.067333 -0.431389
vn 0.970722 0.140387 0.194913
vn 0.012297 0.332012 -0.943195
vn 0.523468 0.425606 -0.738134
vn -0.376667 0.338340 -0.862350
vn -0.785468 0.543983 -0.295164
vn -0.783641 0.515645 0.346436
vn -0.751613 0.477967 0.454561
vn 0.355261 0.914845 0.191957
vn -0.220005 0.973919 0.055493
vn -0.121450 0.760557 0.637811
vn 0.329506 0.533985 0.778644
vn -0.531158 0.846492 -0.036359
vn -0.539309 0.772558 0.335111
vn 0.738530 0.321127 0.592833
vn 0.773467 0.179791 0.607802
vn 0.765006 0.592676 -0.251996
vn 0.792219 0.587121 0.166365
vn 0.038329 0.654921 -0.754725
vn 0.452230 0.747340 -0.486796
vn -0.209716 0.642168 -0.737319
vn -0.982527 -0.148617 -0.112044
vn -0.939951 0.298547 -0.165413
vn -0.830285 0.082412 -0.551212
vn -0.885700 -0.198257 -0.419798
vn -0.599468 0.659512 0.453523
vn -0.633988 0.665967 0.393124
vn -0.267927 0.569860 0.776837
vn 0.250679 0.223137 0.942003
vn -0.501529 0.660775 0.558431
vn 0.745291 0.534325 0.398796
vn 0.799027 0.510252 0.318120
vn 0.632134 0.765695 -0.118814
vn 0.626723 0.771757 -0.107748
vn 0.111299 0.916913 -0.383253
vn 0.274615 0.933616 -0.230106
vn 0.000299 0.929961 -0.367659
vn -0.388595 0.887845 -0.246426
vn -0.325299 0.943001 -0.070215
vn -0.323557 0.779666 0.536127
vn -0.366073 0.855356 0.366548
vn -0.268598 0.861825 0.430247
vn -0.268598 0.861825 0.430247
vn 0.475946 0.821782 -0.313288
vn 0.267277 0.926188 -0.265970
vn 0.315539 0.938620 0.139386
vn 0.623447 0.780014 0.053788
vn -0.330507 0.900759 0.281779
vn 0.486203 0.867959 -0.101265
vn 0.592029 0.801866 -0.080703
vn -0.025081 -0.979925 -0.197784
vn -0.233119 -0.956659 -0.174523
vn -0.144846 -0.986621 -0.074830
vn 0.089400 -0.911773 0.400846
vn 0.208640 -0.741290 0.637932
vn 0.213513 0.963957 -0.158743
vn -0.144441 0.940300 0.308177
vn -0.164308 0.984082 0.067715
vn 0.484678 0.641612 0.594493
vn 0.029495 0.766367 0.641726
vn 0.633708 -0.752837 -0.177908
vn 0.649608 -0.748174 -0.135074
vn 0.619149 -0.777385 -0.111030
vn 0.825387 -0.552944 -0.113969
vn 0.714835 -0.654434 -0.246430
vn 0.845781 -0.507309 -0.165202
vn 0.535201 -0.831210 -0.150497
vn 0.740647 -0.652220 -0.161404
vn 0.682984 -0.721707 0.112570
vn 0.568738 -0.816717 0.097519
vn 0.580265 -0.719870 -0.380893
vn 0.491864 -0.810433 -0.318226
vn 0.105000 -0.475711 -0.873312
vn 0.435848 -0.600287 -0.670591
vn -0.545142 -0.503120 -0.670589
vn -0.420338 -0.892798 -0.161948
vn -0.498930 -0.866526 -0.014227
vn -0.381657 -0.783426 0.490491
vn -0.624231 -0.776612 0.084913
vn -0.084996 -0.671579 0.736042
vn 0.096379 -0.699672 0.707934
vn 0.096379 -0.699672 0.707934
vn 0.178490 -0.669460 0.721086
vn 0.179807 -0.668928 0.721252
vn 0.718113 -0.554176 0.420955
vn 0.714124 -0.548623 0.434788
vn 0.678112 -0.524697 0.514642
vn 0.652050 -0.518773 0.552906
vn 0.720586 -0.684017 -0.113472
vn 0.642255 -0.760341 -0.096904
vn 0.667193 -0.739696 -0.087765
vn 0.752557 -0.421632 -0.505850
vn 0.867952 -0.401970 -0.291684
vn 0.942044 -0.303417 0.143145
vn 0.703202 -0.700196 -0.123418
vn 0.608980 -0.623841 0.489863
vn 0.722433 -0.533024 0.440426
vn 0.333273 -0.851033 0.405799
vn 0.700766 -0.582009 0.412544
vn 0.360509 -0.620761 0.696196
vn 0.250630 -0.780119 0.573236
vn 0.566961 -0.557139 0.606755
vn 0.552543 -0.578041 0.600470
vn 0.500928 -0.653046 0.567981
vn 0.509446 -0.640448 0.574710
vn 0.509319 -0.676821 0.531515
vn 0.503486 -0.677121 0.536664
vn 0.485842 -0.864672 -0.127672
vn 0.726932 -0.673408 -0.134507
vn 0.987504 0.131119 -0.087429
vn 0.693544 -0.165970 0.701036
vn 0.515530 -0.226684 0.826343
vn 0.733461 -0.528700 0.427214
vn 0.706545 -0.606564 0.364519
vn 0.706418 0.547104 0.449055
vn -0.289491 0.855235 0.429847
vn -0.348940 -0.895408 -0.276561
vn -0.348940 -0.895408 -0.276561
vn -0.233912 -0.725362 -0.647407
vn -0.233912 -0.725362 -0.647407
vn -0.233912 -0.725362 -0.647407
vn -0.233912 -0.725362 -0.647407
vn -0.903521 0.423555 0.065200
vn -0.914938 0.383690 0.125184
vn -0.969181 0.217347 0.115964
vn -0.968128 0.219350 0.120889
vn -0.570663 0.482400 -0.664556
vn -0.543739 0.490194 -0.681218
vn -0.820314 0.506311 -0.265959
vn -0.826340 0.457764 -0.328046
vn -0.741158 0.170928 -0.649207
vn -0.801266 0.056109 -0.595672
vn -0.958746 -0.106981 -0.263364
vn -0.953136 -0.123062 -0.276383
vn -0.871263 0.239822 -0.428236
vn -0.810200 0.122463 -0.573218
vn -0.806460 0.169433 -0.566493
vn -0.812237 0.031960 -0.582452
vn -0.862872 0.192181 -0.467459
vn -0.840492 0.538462 0.060269
vn -0.819966 0.555623 0.137617
vn -0.814482 0.570427 0.105980
vn -0.747378 0.600558 0.284177
vn -0.751980 0.591640 0.290668
vn -0.744283 0.606395 0.279871
vn -0.806240 0.576866 0.131160
vn -0.852958 0.393943 -0.342451
vn -0.854237 0.398080 -0.334381
vn -0.902918 0.292754 0.314697
vn -0.945158 -0.056355 0.321716
vn -0.603828 0.765417 0.222550
vn -0.667115 0.673201 -0.318994
vn -0.591024 0.486196 -0.643664
vn -0.959928 0.079230 -0.268814
vn -0.959928 0.079230 -0.268814
vn -0.959928 0.079230 -0.268814
vn -0.959928 0.079230 -0.268814
vn -0.684665 -0.728854 -0.002533
vn -0.673396 -0.727805 -0.129763
vn -0.624133 -0.771057 0.126215
vn -0.517175 0.839745 -0.165403
vn -0.517175 0.839745 -0.165403
vn -0.517175 0.839745 -0.165403
vn 0.428203 -0.871739 0.238145
vn 0.428203 -0.871739 0.238145
vn 0.428203 -0.871739 0.238145
vn -0.157830 0.686338 -0.709950
vn -0.157830 0.686338 -0.709950
vn -0.157830 0.686338 -0.709950
vn 0.357451 -0.687696 0.631904
vn 0.357451 -0.687696 0.631904
vn 0.357451 -0.687696 0.631904
vn -0.966483 0.205448 0.153955
vn -0.966483 0.205448 0.153955
vn -0.966483 0.205448 0.153955
vn -0.966483 0.205448 0.153955
vn -0.054176 0.418100 0.906784
vn -0.058627 0.228974 0.971666
vn -0.051451 0.223609 0.973320
vn 0.181671 0.102456 0.978007
vn -0.118100 -0.156210 -0.980638
vn -0.390200 0.097729 -0.915529
vn -0.350806 0.084360 -0.932641
vn -0.120684 -0.154434 -0.980605
vn -0.290630 0.393715 0.872079
vn 0.189098 -0.351015 -0.917077
vn -0.279049 0.664524 0.693209
vn -0.279049 0.664524 0.693209
vn 0.221759 -0.325337 -0.919227
vn 0.086290 -0.167147 -0.982149
vn 0.379606 -0.505060 -0.775122
vn 0.379606 -0.505060 -0.775122
vn 0.452347 -0.863371 -0.223548
vn 0.452347 -0.863371 -0.223548
vn 0.452347 -0.863371 -0.223548
vn 0.452347 -0.863371 -0.223548
s 1
g Meteor
usemtl lambert2SG
f 1/144/1 2/2/2 10/3/3 9/148/4
f 2/2/2 3/5/5 11/6/6 10/3/3
s 2
f 134/7/7 135/8/8 136/9/9 137/10/10
s 1
f 4/198/11 5/12/12 13/13/13 12/197/14
f 5/12/12 6/15/15 14/16/16 13/13/13
s 4
f 6/15/17 7/17/18 15/186/19 14/16/20
f 7/17/18 8/19/21 16/180/22 92/21/23
s 1
f 81/22/24 82/23/25 1/1/1 9/182/4
f 65/141/26 66/194/27 18/26/28 17/142/29
f 66/194/27 67/196/30 19/29/31 18/26/28
f 125/30/32 126/191/33 68/192/34 20/33/35
f 68/192/34 69/34/36 21/35/37 20/33/35
f 69/34/36 70/36/38 22/37/39 21/35/37
f 70/36/40 71/38/41 23/39/42 22/37/39
f 71/38/43 93/40/44 94/41/45 23/39/42
f 59/42/46 63/43/47 76/183/48 24/185/49
f 17/142/29 18/26/28 26/46/50 25/147/51
f 18/26/28 19/29/31 27/48/52 26/46/50
f 124/49/53 125/30/32 20/33/35 28/50/54
f 20/33/35 21/35/37 29/51/55 28/50/54
f 21/35/37 22/37/39 30/52/56 29/51/55
f 22/37/39 23/39/42 31/53/57 30/52/56
f 23/39/42 94/41/45 95/54/58 31/53/57
f 24/45/49 76/44/48 77/55/59 32/56/60
f 25/147/51 26/46/50 34/57/61 33/146/62
f 26/46/50 27/48/52 35/173/63 34/57/61
f 123/60/64 124/49/53 28/50/54 36/170/65
f 28/50/54 29/51/55 37/62/66 36/170/65
s 10
f 29/51/67 30/52/68 38/63/69 37/62/70
f 30/52/68 31/53/71 39/64/72 38/63/69
s 1
f 31/53/57 95/54/58 96/65/73 39/64/74
f 32/56/60 77/55/59 78/66/75 40/67/76
f 33/146/62 34/57/61 42/68/77 41/145/78
f 34/57/61 35/173/63 43/174/79 42/68/77
s 11
f 114/71/80 117/72/81 118/73/82 107/74/83
s 1
f 36/170/65 37/62/66 45/75/84 44/76/85
s 10
f 37/62/70 38/63/69 46/77/86 45/75/87
f 38/63/69 39/64/72 47/78/88 46/77/86
s 1
f 39/64/74 96/65/73 97/79/89 47/78/90
f 40/67/76 78/66/75 79/80/91 48/81/92
f 41/145/78 42/68/77 50/82/93 49/143/94
f 42/68/77 43/174/79 51/84/95 50/82/93
f 43/174/79 120/85/96 121/86/97 51/84/95
f 44/76/85 45/75/84 53/87/98 52/88/99
f 45/75/84 46/77/100 54/89/101 53/87/98
s 12
f 46/77/102 47/78/103 55/90/104 54/89/105
f 47/78/103 97/79/106 55/90/104
s 1
f 48/81/92 79/80/91 80/91/107 56/92/108
f 2/2/2 1/144/1 57/155/109
f 3/5/5 2/2/2 57/156/109
s 2
f 136/9/9 135/8/8 57/159/110
s 1
f 5/12/12 4/198/11 57/149/111
f 6/15/112 5/12/12 57/150/111
s 4
f 7/17/18 6/15/17 57/151/113
f 8/19/21 7/17/18 57/152/113
s 1
f 1/1/1 82/23/25 57/154/109
f 49/143/94 50/82/93 58/161/114
f 50/82/93 51/84/95 58/160/114
f 51/84/95 121/86/97 58/94/114
f 52/88/99 53/87/98 58/167/115
f 53/87/98 54/89/116 58/166/115
s 12
f 54/89/105 55/90/104 58/165/117
f 55/90/104 56/92/118 58/164/117
s 1
f 56/92/108 80/91/107 58/163/114
f 72/95/119 73/96/120 59/42/46 24/185/49
f 64/97/121 81/181/24 9/4/4 61/98/122
f 17/184/29 62/99/123 75/100/124 65/24/26
s 13
f 63/43/125 74/101/126 75/100/127 62/99/128
f 73/96/129 74/101/126 63/43/125 59/42/130
s 1
f 9/148/4 10/3/3 104/193/131 105/140/132
f 10/3/3 11/6/6 103/190/133 104/193/131
s 2
f 130/105/134 134/7/7 137/10/10 138/106/135
s 1
f 12/197/14 13/13/13 101/107/136 102/195/137
f 13/13/13 14/16/16 100/109/138 101/107/136
f 14/16/139 15/186/140 99/110/141 100/109/142
f 98/111/143 91/112/144 85/113/145 16/20/146
f 16/20/147 60/114/148 73/96/120 98/111/149
s 13
f 60/114/150 64/97/151 74/101/126 73/96/129
f 75/100/127 74/101/126 64/97/151 61/98/152
s 1
f 105/103/132 75/100/124 61/98/122 9/4/4
f 76/183/48 63/43/47 62/99/123 17/184/29
f 77/55/59 76/44/48 17/27/29 25/47/51
f 78/66/75 77/55/59 25/47/51 33/58/62
f 79/80/91 78/66/75 33/58/62 41/69/78
f 80/91/107 79/80/91 41/69/78 49/83/94
f 58/162/114 80/91/107 49/83/94
f 16/20/147 81/181/24 64/97/121 60/114/148
f 8/19/153 82/23/25 81/22/24 16/180/147
f 57/153/109 82/23/25 8/19/153
f 71/176/43 84/115/154 87/116/155 93/178/44
s 15
f 87/116/156 90/117/157 91/112/158 83/118/159
s 1
f 88/119/160 92/179/161 16/20/146 85/113/145
f 15/18/162 86/120/163 89/121/164 99/175/165
s 15
f 84/115/166 89/121/167 90/117/157 87/116/156
f 90/117/157 89/121/167 86/120/168 88/119/169
f 91/112/158 90/117/157 88/119/169 85/113/170
s 1
f 15/18/162 92/179/161 88/119/160 86/120/163
s 4
f 7/17/18 92/21/23 15/186/19
s 1
f 93/178/44 87/116/155 83/118/171 72/95/172
f 94/41/45 93/40/44 72/177/172 24/45/49
f 95/54/58 94/41/45 24/45/49 32/56/60
f 96/65/73 95/54/58 32/56/60 40/67/76
f 97/79/89 96/65/73 40/67/76 48/81/173
s 12
f 55/90/104 97/79/106 48/81/174 56/92/118
s 1
f 98/111/149 73/96/120 72/95/119
f 83/118/171 91/112/144 98/111/143 72/95/172
f 99/175/165 89/121/164 84/115/154 71/176/43
f 100/109/142 99/110/141 71/38/41 70/36/40
f 101/107/136 100/109/138 70/36/38 69/34/36
f 102/195/137 101/107/136 69/34/36 68/192/34
s 2
f 131/122/175 130/105/134 138/106/135 139/123/176
s off
f 132/124/177 103/104/178 67/28/179 133/125/180
s 1
f 105/140/132 104/193/131 66/194/27 65/141/26
f 65/24/26 75/100/124 105/103/132
s 16
f 44/172/181 110/126/182 111/127/183 36/61/184
f 43/70/185 113/128/186 119/129/187 120/171/188
f 35/59/189 112/130/190 113/128/186 43/70/185
f 122/131/191 123/169/192 36/61/184 111/127/183
s 18
f 111/127/193 110/126/194 107/74/195 118/73/196 106/132/197
f 115/133/198 122/131/199 111/127/193 106/132/197
f 113/128/200 112/130/201 109/134/202 116/135/203 108/136/204
f 114/71/205 119/129/206 113/128/200 108/136/204
s 11
f 116/135/207 117/72/81 114/71/80 108/136/208
f 109/134/209 115/133/210 117/72/81 116/135/207
f 118/73/82 117/72/81 115/133/210 106/132/211
s 18
f 110/126/194 119/129/206 114/71/205 107/74/195
s 16
f 120/171/188 119/129/187 110/126/182 44/172/181
s 1
f 121/86/97 120/85/96 44/76/85 52/88/99
f 58/168/114 121/86/97 52/88/99
s 18
f 112/130/201 122/131/199 115/133/198 109/134/202
s 16
f 35/59/189 123/169/192 122/131/191 112/130/190
s 1
f 27/48/52 124/49/53 123/60/64 35/173/63
f 19/29/31 125/30/32 124/49/53 27/48/52
f 67/196/30 126/191/33 125/30/32 19/29/31
s off
f 103/104/212 130/105/213 131/122/214 67/28/215
s 1
f 11/6/6 128/187/216 127/189/217 103/190/133
f 3/5/5 129/188/218 128/187/216 11/6/6
f 57/157/109 129/188/218 3/5/5
s off
f 103/104/219 127/206/220 130/105/221
f 126/31/222 67/28/223 131/122/224
f 104/102/225 103/104/226 132/124/227
f 67/28/228 66/199/229 133/125/230
f 66/25/231 104/200/232 132/124/233 133/125/234
s 19
f 128/137/235 129/139/236 135/8/237 134/7/238
s 20
f 4/11/239 12/203/240 137/10/241 136/9/242
s 19
f 129/139/236 57/158/243 135/8/237
s 20
f 57/93/244 4/11/239 136/9/242
s 19
f 127/138/245 128/204/235 134/7/238 130/105/246
s 20
f 12/14/240 102/202/247 138/106/248 137/10/241
f 102/108/247 68/201/249 139/123/250 138/106/248
s off
f 68/32/251 126/205/252 131/122/253 139/123/254
